<?xml version="1.0" encoding="utf-8"?>
<!-- Generator: Adobe Illustrator 22.0.1, SVG Export Plug-In . SVG Version: 6.00 Build 0)  -->
<svg version="1.1" id="Lager_1" xmlns="http://www.w3.org/2000/svg" xmlns:xlink="http://www.w3.org/1999/xlink" x="0px" y="0px"
	 viewBox="0 0 229 151" style="enable-background:new 0 0 229 151;" xml:space="preserve">
<style type="text/css">
	.st0{display:none;fill:#FCFCFC;}
	.st1{fill:#FFFFFF;}
	.st2{fill:#B8457B;}
</style>
<g>
	<path class="st0" d="M125.5,159c-45.3,0-90.7,0-136,0.1c-3,0-3.6-0.6-3.6-3.6c0.1-47.7,0.1-95.3,0-143c0-3,0.6-3.6,3.6-3.6
		c91,0.1,182,0.1,273,0c3,0,3.6,0.6,3.6,3.6c-0.1,47.7-0.1,95.3,0,143c0,3-0.6,3.6-3.6,3.6C216.8,159,171.2,159,125.5,159z
		 M81.7,132.2c3.5-2.2,8.2-3.3,8.3-8.7c0-7.5,0.2-15-0.1-22.5c-0.2-4.8-3.8-7.6-8.7-7.8c-5.3-0.2-9.7,2.4-9.7,7.2
		c0,10.2-2.9,20.9,2.9,30.6c7.5,11.2,24.2,16.2,37.6,10.8c-2.6-0.6-4.6-1.1-6.6-1.4C97,139,89.4,135.4,81.7,132.2z M101.3,75.6
		c-9.6,14-7.3,29.9-7.4,45.3c-0.1,11.4,0,11.5,11.5,9.9c4.6-0.6,7.3-3.1,7.5-7.8c0.2-3.9,0.9-8.1-3-11c-0.9-0.7-0.7-1-0.2-1.9
		c5.2-9.5,3.2-14.4-6.5-16.9c3.3-6.1,5.3-12.7,7.7-19.1c1-2.6-0.2-3.6-2.5-4.1c-5.8-1.3-11.7-2.6-17.5-4
		c-15.3-3.6-24.8-14.1-33.6-27.2c22,1.3,44.1-1.9,60.3,17.4c-2-8.5-6.4-14.4-13.9-17.9c-13.7-6.4-28.2-5.5-42.6-4.5
		c-2.8,0.2-5.6,0.9-8.3,1.7c-2.9,0.9-3.9,2.7-1.9,5.6C60,54.7,70.8,66.4,87,71.7C91.4,73.1,95.9,74.1,101.3,75.6z M49.1,113.5
		c0.3,3.3-0.6,7.7,0.6,11.9c1.3,4.7,4.8,6,9.2,5.9c4.3-0.1,7.4-1.8,8.4-6.2c1-4.3,0.3-8.6,0.4-12.9c0-1.4-0.8-2.3-2.2-2
		c-2.1,0.4-4.9-1.4-6.3,1.2c-0.6,1.1-0.9,3.4,0.7,4c3.1,1.2,1.7,3.6,1.9,5.5c0.2,2.4,0.1,5-3.3,5c-3.1,0-3-2.6-3-4.7
		c-0.1-5.8-0.1-11.6,0-17.5c0-2.1-0.3-4.7,2.9-4.8c3-0.2,3.5,2.1,3.4,4.4c-0.2,2.5,1,3,3.2,3c2.8,0,2.8-1.6,2.7-3.6
		c-0.1-5.8-3.2-9.2-8.8-9.5c-5.9-0.3-9.5,2.8-9.9,8.8C49,105.5,49.1,109,49.1,113.5z M146.5,93.9c-4.1-1.7-4.8,1-5.3,4.4
		c-1.5,9.3-3.1,18.7-4.7,28c-0.3,1.7-1.6,3.8,0.5,4.6c2.7,1.1,4.5-1,4.7-3.4c0.4-4.2,3.2-3.1,5.7-3.4c3.2-0.3,3.2,2,3.2,3.8
		c0,3.9,2.7,3,4.9,2.9c3.2-0.1,1.4-2.5,1.2-3.7c-1.5-9.8-3.4-19.6-4.8-29.5C151.5,94.4,150.2,92.9,146.5,93.9z M134.5,52
		c-4.4-2-6.5-4.6-7.9-8.3c-4.4-11.5-11.9-20.7-22.2-27.6c-4.8-3.2-10.1-8.4-16.1-5c-6,3.4-4.3,10.5-4.3,16.4c0,0.5,0.2,0.6,0.7,0.3
		c0.3-1,0.7-2.1,1-3.1c3-9.7,3.6-9.9,12.1-4.6c9,5.5,16.2,12.5,20.9,22.2C121.7,48.2,125.3,53.7,134.5,52z M16.4,120.7
		c-0.3,0-0.7,0-1,0c-0.1-0.6-0.2-1.3-0.3-1.9c-1.1-7.4-2.3-14.8-3.3-22.2c-0.4-3.2-2.6-2.8-4.8-2.8c-1.8,0-2.1,0.8-1.8,2.5
		c1.8,10.3,3.7,20.6,5.1,31c0.6,4.3,3.3,3.4,6,3.7c3.3,0.3,4.2-1,4.7-4.1c1.4-9.6,3.1-19,4.5-28.6c0.2-1.5,2.2-4.1-1.5-4.6
		c-3.3-0.5-3.8,1.4-4.1,4.1C18.9,105.5,17.6,113.1,16.4,120.7z M116.7,112.2c0,1.8,0,3.7,0,5.5c0.1,4.3-1.4,10.7,0.8,12.4
		c2.8,2.2,8.5,0.6,13,0.8c1.9,0.1,3.2-0.1,3.2-2.5c0-2.2-0.7-3.1-2.9-2.8c-1.3,0.1-2.7-0.1-4,0.1c-5.5,0.8-3.6-3.3-3.8-5.8
		c-0.2-2.8-0.8-5.8,4-5.1c1.7,0.3,4.4,1.4,4.5-2.5c0.1-4.2-2.8-3-4.8-2.8c-3.2,0.3-3.9-0.8-3.8-3.9c0.1-6.5,0-6.5,6.5-6.6
		c0.5,0,1,0,1.5,0c1.8,0.2,2.7-0.3,2.8-2.4c0-2.1-0.6-3-2.8-2.9c-3.5,0.1-7,0.2-10.5,0c-2.8-0.2-3.8,0.6-3.7,3.5
		C116.9,102.2,116.7,107.2,116.7,112.2z M178.3,110.1C178.3,110.1,178.3,110.1,178.3,110.1c0-4.3,0-8.7,0-13c0-1.9,0.2-3.4-2.7-3.5
		c-2.9,0-3.2,1.3-3.1,3.6c0.1,7.7,0.1,15.3,0,23c0,2.4,0.7,5.6-3.1,5.6c-3.7,0.1-3.3-3-3.3-5.5c0-8-0.1-16,0-24
		c0-2.3-0.9-2.8-2.9-2.7c-2,0.1-3.4,0-3.4,2.8c0.2,8.8-0.1,17.7,0.1,26.5c0.1,5.5,3.5,8.4,9.1,8.4c5.8,0,9-2.9,9.2-8.8
		C178.4,118.4,178.3,114.3,178.3,110.1z M29.1,112c0,2.2,0,4.3,0,6.5c0,12.6,0,12.6,12.8,12.4c1.8,0,4.2,0.8,4.2-2.6
		c0-3.4-2.3-2.5-4.1-2.7c-2.1-0.2-5,1.1-6.1-0.8c-1.5-2.6-1-6-0.3-8.8c0.5-2.2,3.2-1,4.9-1.1c2-0.1,3.6,0,3.6-2.8
		c0-2.7-1.4-2.9-3.5-2.9c-1.7,0-3.8,1-5-1c-2.5-4.2,0.5-9.2,5.3-9.2c0.7,0,1.3,0,2,0c1.8,0.1,3.2,0.1,3.3-2.5
		c0.1-2.8-1.5-2.8-3.5-2.8c-3.3,0.1-6.7,0.2-10,0c-3-0.2-3.6,1.2-3.5,3.8C29.2,102.4,29.1,107.2,29.1,112z M200.8,94.1
		c2.6,11.8,8.8,22.4,7.3,34.6c-0.3,2.7,1.7,2.2,3.3,2.3c2,0.1,3.3-0.2,3-2.6c-0.7-7.3,1-14.1,3.4-20.9c1.6-4.4,2.8-9,4.3-13.5
		c-5.8-0.3-5.8-0.3-7.2,4.4c-1.1,3.5-1.5,7.3-3.6,11.1c-1.1-3.8-2.5-7.1-3-10.5C207.8,94.3,205.6,92.7,200.8,94.1z M187.2,114.5
		c0,4.3,0.1,8.6,0,12.9c-0.1,2.3,0.2,3.6,3.1,3.6c3,0.1,3.1-1.3,3.1-3.6c-0.1-8,0.1-15.9-0.1-23.9c-0.1-3,0-5.4,4-4.6
		c1.8,0.3,2.7-0.4,2.6-2.4c-0.1-1.7-0.3-2.9-2.4-2.8c-5,0.1-10,0.1-14.9,0c-2.2,0-1.8,1.4-1.8,2.7c0,1.4-0.1,2.9,1.9,2.5
		c4.5-0.9,4.7,1.8,4.5,5.1C187.1,107.5,187.2,111,187.2,114.5z M121.1,141.8c1.4,2.3,3.1,2.5,4.6,3.1c2.7,1.2,5.5,2.2,8.4,3.1
		c3.9,1.1,7.8,1.6,11.7,0.1c4.5-1.7,8-5.9,7.4-9.5c-0.8-5.2-5.1-5.9-9.3-6.6c-0.8-0.1-1.7-0.3-2.5-0.1c-2.1,0.5-5.4-1.5-6,1.6
		c-0.5,3,3.2,1.6,4.8,2.7c1.6,1.2,4.9,1.3,4.5,3.8c-0.4,2.5-3.4,2.8-5.7,3C133.1,143.6,127.3,143.2,121.1,141.8z M136.3,85.3
		c4.3,3.7,7.5,3.7,12.3,0.2c4.2-3,5.2-6.7,3.6-11.3c-0.4-1.1-0.9-1.8-2-1.7c-1.3,0.1-2.8,0-3.7,1.2c-0.8,1.1,0.1,1.9,0.9,2.4
		c2.8,1.8,1.5,3.7,0.2,5.5C144.9,85.4,141,86.6,136.3,85.3z M141,68.1c-0.9-1.8-2.4-3.2-4.2-3.1c-1.5,0-1.5,1.9-1.6,3.1
		c0,1.4,0.8,3.1,2.1,2.8C138.7,70.6,140.5,69.9,141,68.1z M147.2,61.2c-1.7-0.2-1.4,1.1-1.4,1.9c-0.1,1.4-0.6,3.4,1.5,3.4
		c0.9,0,2.5-1.4,2.7-2.3C150.3,62.6,148.4,62.1,147.2,61.2z"/>
	<path class="st1" d="M101.3,75.6c-5.4-1.4-9.9-2.4-14.3-3.9c-16.2-5.3-27-17-36.1-30.7c-2-3-1-4.7,1.9-5.6c2.7-0.8,5.5-1.5,8.3-1.7
		c14.5-1,28.9-1.9,42.6,4.5c7.6,3.6,12,9.4,13.9,17.9C101.5,36.8,79.3,40,57.4,38.7C66.2,51.8,75.7,62.4,91,65.9
		c5.8,1.4,11.6,2.7,17.5,4c2.4,0.5,3.5,1.5,2.5,4.1c-2.4,6.4-4.5,13.1-7.7,19.1c9.7,2.6,11.7,7.5,6.5,16.9c-0.5,0.9-0.7,1.3,0.2,1.9
		c3.9,2.9,3.1,7.1,3,11c-0.2,4.7-2.9,7.2-7.5,7.8c-11.5,1.5-11.6,1.5-11.5-9.9C94,105.4,91.7,89.6,101.3,75.6z M106.9,120.4
		c0-0.8,0-1.3,0-1.8c0-3.1-1.5-4.6-4.6-4.5c-3.6,0.1-1.8,2.8-2.1,4.4c-0.3,1.3-0.1,2.6,0,4c0.1,1.2-0.6,2.9,1.4,3.1
		c1.5,0.2,3,0.3,4.3-0.9C107.2,123.5,106.8,121.7,106.9,120.4z M99.9,103.8c1.2,1.6-1.7,5,2.5,5.1c3.4,0,3.8-2.3,3.8-5.1
		c0-2.7-0.4-5-3.9-4.8C98.3,99.2,100.9,102.2,99.9,103.8z"/>
	<path class="st2" d="M49.1,113.5c0-4.5-0.2-8,0-11.5c0.4-5.9,4-9.1,9.9-8.8c5.5,0.3,8.6,3.6,8.8,9.5c0,1.9,0.1,3.6-2.7,3.6
		c-2.2,0-3.4-0.5-3.2-3c0.1-2.3-0.3-4.6-3.4-4.4c-3.2,0.2-2.9,2.7-2.9,4.8c-0.1,5.8-0.1,11.6,0,17.5c0,2.1-0.1,4.7,3,4.7
		c3.3,0,3.5-2.6,3.3-5c-0.2-1.9,1.2-4.3-1.9-5.5c-1.6-0.6-1.3-2.9-0.7-4c1.5-2.6,4.2-0.8,6.3-1.2c1.4-0.3,2.2,0.6,2.2,2
		c-0.1,4.3,0.5,8.7-0.4,12.9c-1,4.5-4.2,6.1-8.4,6.2c-4.4,0.1-7.9-1.2-9.2-5.9C48.5,121.1,49.5,116.8,49.1,113.5z"/>
	<path class="st2" d="M74.3,131c-5.8-9.7-2.9-20.3-2.9-30.6c0-4.8,4.4-7.5,9.7-7.2c5,0.2,8.5,3.1,8.7,7.8c0.3,7.5,0.1,15,0.1,22.5
		c0,5.4-4.7,6.5-8.3,8.7C78.9,133.5,76.8,131.1,74.3,131z M77.3,112.3c0,3.3-0.1,6.6,0,10c0.1,2,0.9,3.6,3.2,3.7
		c2.4,0,3.2-1.6,3.2-3.6c0.1-6.6,0.1-13.3,0-19.9c0-2-0.9-3.6-3.2-3.6c-2.3,0-3.2,1.6-3.3,3.6C77.2,105.7,77.3,109,77.3,112.3z"/>
	<path class="st1" d="M146.5,93.9c3.7-1,4.9,0.5,5.4,3.8c1.5,9.9,3.3,19.6,4.8,29.5c0.2,1.2,2,3.5-1.2,3.7c-2.1,0.1-4.8,0.9-4.9-2.9
		c0-1.8,0-4.2-3.2-3.8c-2.5,0.3-5.3-0.7-5.7,3.4c-0.2,2.4-2,4.5-4.7,3.4c-2.1-0.8-0.8-3-0.5-4.6c1.6-9.3,3.2-18.6,4.7-28
		C141.7,95,142.4,92.3,146.5,93.9z M146.7,103c-0.3-0.1-0.5-0.1-0.8-0.2c-0.7,4.6-1.2,9.2-2.2,13.7c-0.6,2.7,0.8,2.5,2.6,2.6
		c2.3,0.1,2.9-0.6,2.5-2.8C148.1,111.9,147.4,107.5,146.7,103z"/>
	<path class="st1" d="M134.5,52c-9.2,1.7-12.8-3.8-15.7-9.8c-4.7-9.6-12-16.6-20.9-22.2c-8.5-5.3-9.1-5-12.1,4.6
		c-0.3,1.1-0.7,2.1-1,3.1c-0.5,0.3-0.7,0.2-0.7-0.3c0-5.9-1.6-13,4.3-16.4c6-3.4,11.3,1.8,16.1,5c10.2,6.8,17.8,16,22.2,27.6
		C128,47.4,130.1,50,134.5,52z"/>
	<path class="st2" d="M16.4,120.7c1.2-7.6,2.5-15.2,3.5-22.9c0.4-2.7,0.9-4.5,4.1-4.1c3.7,0.5,1.7,3.1,1.5,4.6
		c-1.4,9.5-3.2,19-4.5,28.6c-0.4,3.1-1.4,4.4-4.7,4.1c-2.7-0.3-5.4,0.6-6-3.7c-1.4-10.4-3.3-20.7-5.1-31c-0.3-1.8,0-2.5,1.8-2.5
		c2.2,0,4.4-0.5,4.8,2.8c1,7.4,2.2,14.8,3.3,22.2c0.1,0.6,0.2,1.3,0.3,1.9C15.7,120.7,16.1,120.7,16.4,120.7z"/>
	<path class="st1" d="M116.7,112.2c0-5,0.2-10-0.1-15c-0.1-2.9,0.9-3.7,3.7-3.5c3.5,0.2,7,0.2,10.5,0c2.2-0.1,2.9,0.8,2.8,2.9
		c0,2.1-0.9,2.6-2.8,2.4c-0.5-0.1-1,0-1.5,0c-6.6,0.1-6.4,0.1-6.5,6.6c-0.1,3,0.7,4.2,3.8,3.9c1.9-0.2,4.8-1.4,4.8,2.8
		c-0.1,3.9-2.8,2.8-4.5,2.5c-4.7-0.7-4.2,2.3-4,5.1c0.2,2.5-1.7,6.6,3.8,5.8c1.3-0.2,2.7,0.1,4-0.1c2.2-0.2,2.9,0.7,2.9,2.8
		c0,2.5-1.2,2.6-3.2,2.5c-4.5-0.2-10.2,1.4-13-0.8c-2.2-1.7-0.7-8.1-0.8-12.4C116.7,115.9,116.7,114.1,116.7,112.2z"/>
	<path class="st1" d="M178.3,110.1c0,4.2,0.1,8.3,0,12.5c-0.2,5.9-3.4,8.8-9.2,8.8c-5.6,0-8.9-2.9-9.1-8.4c-0.2-8.8,0-17.7-0.1-26.5
		c-0.1-2.8,1.4-2.7,3.4-2.8c2.1-0.1,3,0.4,2.9,2.7c-0.1,8-0.1,16,0,24c0,2.5-0.4,5.5,3.3,5.5c3.8-0.1,3.1-3.3,3.1-5.6
		c0.1-7.7,0.1-15.3,0-23c0-2.3,0.2-3.6,3.1-3.6c2.9,0,2.7,1.5,2.7,3.5C178.3,101.4,178.3,105.8,178.3,110.1
		C178.3,110.1,178.3,110.1,178.3,110.1z"/>
	<path class="st2" d="M29.1,112c0-4.8,0.1-9.7,0-14.5c-0.1-2.6,0.5-4,3.5-3.8c3.3,0.2,6.7,0.1,10,0c2,0,3.6,0,3.5,2.8
		c-0.1,2.5-1.5,2.5-3.3,2.5c-0.7,0-1.3,0-2,0c-4.8,0-7.8,5-5.3,9.2c1.2,2,3.3,1,5,1c2.1,0,3.5,0.2,3.5,2.9c0,2.8-1.6,2.7-3.6,2.8
		c-1.7,0.1-4.3-1.1-4.9,1.1c-0.7,2.8-1.2,6.2,0.3,8.8c1.1,2,4,0.6,6.1,0.8c1.8,0.2,4.1-0.7,4.1,2.7c0,3.4-2.3,2.5-4.2,2.6
		c-12.8,0.2-12.8,0.2-12.8-12.4C29.1,116.4,29.1,114.2,29.1,112z"/>
	<path class="st1" d="M200.8,94.1c4.8-1.4,7,0.2,7.6,4.9c0.5,3.4,1.8,6.7,3,10.5c2.1-3.8,2.5-7.5,3.6-11.1c1.4-4.7,1.4-4.8,7.2-4.4
		c-1.4,4.6-2.7,9.1-4.3,13.5c-2.4,6.8-4.2,13.6-3.4,20.9c0.2,2.4-1.1,2.7-3,2.6c-1.6-0.1-3.6,0.4-3.3-2.3
		C209.7,116.5,203.4,105.9,200.8,94.1z"/>
	<path class="st1" d="M187.2,114.5c0-3.5-0.1-7,0-10.5c0.2-3.3,0-6-4.5-5.1c-2,0.4-2-1.2-1.9-2.5c0-1.3-0.3-2.7,1.8-2.7
		c5,0.1,10,0.1,14.9,0c2.1,0,2.3,1.1,2.4,2.8c0.1,2-0.8,2.8-2.6,2.4c-4-0.7-4.1,1.6-4,4.6c0.1,8,0,15.9,0.1,23.9
		c0,2.2-0.1,3.6-3.1,3.6c-3-0.1-3.2-1.3-3.1-3.6C187.3,123.2,187.2,118.8,187.2,114.5z"/>
	<path class="st1" d="M121.1,141.8c6.3,1.4,12,1.8,17.9,1.3c2.3-0.2,5.3-0.5,5.7-3c0.4-2.5-2.9-2.6-4.5-3.8
		c-1.5-1.2-5.3,0.3-4.8-2.7c0.5-3.1,3.9-1.1,6-1.6c0.8-0.2,1.7-0.1,2.5,0.1c4.2,0.7,8.5,1.4,9.3,6.6c0.6,3.6-2.9,7.9-7.4,9.5
		c-3.9,1.5-7.9,1-11.7-0.1c-2.8-0.8-5.7-1.9-8.4-3.1C124.2,144.3,122.4,144.1,121.1,141.8z"/>
	<path class="st1" d="M74.3,131c2.5,0,4.6,2.5,7.3,1.2c7.7,3.2,15.3,6.8,23.7,8.2c2,0.3,4,0.8,6.6,1.4
		C98.6,147.3,81.8,142.2,74.3,131z"/>
	<path class="st1" d="M136.3,85.3c4.7,1.4,8.6,0.2,11.5-3.7c1.3-1.7,2.6-3.7-0.2-5.5c-0.8-0.5-1.7-1.3-0.9-2.4
		c0.9-1.2,2.4-1.1,3.7-1.2c1.1-0.1,1.5,0.6,2,1.7c1.6,4.6,0.6,8.3-3.6,11.3C143.8,88.9,140.6,89,136.3,85.3z"/>
	<path class="st1" d="M141,68.1c-0.5,1.8-2.3,2.5-3.6,2.8c-1.4,0.3-2.1-1.4-2.1-2.8c0-1.2,0-3.1,1.6-3.1
		C138.6,64.9,140.1,66.3,141,68.1z"/>
	<path class="st1" d="M147.2,61.2c1.1,0.9,3,1.4,2.8,3c-0.2,0.9-1.8,2.3-2.7,2.3c-2.1-0.1-1.6-2-1.5-3.4
		C145.9,62.3,145.6,61,147.2,61.2z"/>
	<path class="st0" d="M106.9,120.4c-0.1,1.3,0.4,3.1-1.1,4.4c-1.2,1.1-2.8,1-4.3,0.9c-2-0.2-1.4-1.9-1.4-3.1c-0.1-1.3-0.2-2.7,0-4
		c0.3-1.6-1.5-4.3,2.1-4.4c3.1-0.1,4.6,1.4,4.6,4.5C106.9,119.1,106.9,119.6,106.9,120.4z"/>
	<path class="st0" d="M99.9,103.8c1-1.6-1.5-4.6,2.4-4.8c3.6-0.2,3.9,2.1,3.9,4.8c0,2.7-0.4,5.1-3.8,5.1
		C98.1,108.9,101,105.4,99.9,103.8z"/>
	<path class="st0" d="M77.3,112.3c0-3.3-0.1-6.6,0-10c0.1-2,0.9-3.6,3.3-3.6c2.3,0,3.2,1.6,3.2,3.6c0.1,6.6,0.1,13.3,0,19.9
		c0,2-0.9,3.6-3.2,3.6c-2.3,0-3.2-1.7-3.2-3.7C77.2,119,77.3,115.7,77.3,112.3z"/>
	<path class="st0" d="M146.7,103c0.7,4.4,1.4,8.9,2.2,13.3c0.4,2.2-0.2,3-2.5,2.8c-1.8-0.1-3.2,0-2.6-2.6c0.9-4.5,1.5-9.1,2.2-13.7
		C146.2,102.9,146.4,103,146.7,103z"/>
</g>
</svg>
