<?xml version="1.0" encoding="utf-8"?>
<!-- Generator: Adobe Illustrator 22.0.1, SVG Export Plug-In . SVG Version: 6.00 Build 0)  -->
<svg version="1.1" id="Lager_1" xmlns="http://www.w3.org/2000/svg" xmlns:xlink="http://www.w3.org/1999/xlink" x="0px" y="0px"
	 viewBox="0 0 229 151" style="enable-background:new 0 0 229 151;" xml:space="preserve">
<style type="text/css">
	.st0{display:none;fill:#FCFCFC;}
	.st1{fill:#0A0A0A;}
	.st2{fill:#CE3D6D;}
</style>
<g>
	<path class="st0" d="M126.5,155c-45.3,0-90.7,0-136,0.1c-3,0-3.6-0.6-3.6-3.6c0.1-47.7,0.1-95.3,0-143c0-3,0.6-3.6,3.6-3.6
		c91,0.1,182,0.1,273,0c3,0,3.6,0.6,3.6,3.6c-0.1,47.7-0.1,95.3,0,143c0,3-0.6,3.6-3.6,3.6C217.8,155,172.2,155,126.5,155z
		 M82.7,128.2c3.5-2.2,8.2-3.3,8.3-8.7c0-7.5,0.2-15-0.1-22.5c-0.2-4.8-3.8-7.6-8.7-7.8c-5.3-0.2-9.7,2.4-9.7,7.2
		c0,10.2-2.9,20.9,2.9,30.6c7.5,11.2,24.2,16.2,37.6,10.8c-2.6-0.6-4.6-1.1-6.6-1.4C98,135,90.4,131.4,82.7,128.2z M102.3,71.6
		c-9.6,14-7.3,29.9-7.4,45.3c-0.1,11.4,0,11.5,11.5,9.9c4.6-0.6,7.3-3.1,7.5-7.8c0.2-3.9,0.9-8.1-3-11c-0.9-0.7-0.7-1-0.2-1.9
		c5.2-9.5,3.2-14.4-6.5-16.9c3.3-6.1,5.3-12.7,7.7-19.1c1-2.6-0.2-3.6-2.5-4.1c-5.8-1.3-11.7-2.6-17.5-4
		c-15.3-3.6-24.8-14.1-33.6-27.2c22,1.3,44.1-1.9,60.3,17.4c-2-8.5-6.4-14.4-13.9-17.9c-13.7-6.4-28.2-5.5-42.6-4.5
		c-2.8,0.2-5.6,0.9-8.3,1.7c-2.9,0.9-3.9,2.7-1.9,5.6C61,50.7,71.8,62.3,88,67.7C92.4,69.1,96.9,70.1,102.3,71.6z M50.1,109.4
		c0.3,3.3-0.6,7.7,0.6,11.9c1.3,4.7,4.8,6,9.2,5.9c4.3-0.1,7.4-1.8,8.4-6.2c1-4.3,0.3-8.6,0.4-12.9c0-1.4-0.8-2.3-2.2-2
		c-2.1,0.4-4.9-1.4-6.3,1.2c-0.6,1.1-0.9,3.4,0.7,4c3.1,1.2,1.7,3.6,1.9,5.5c0.2,2.4,0.1,5-3.3,5c-3.1,0-3-2.6-3-4.7
		c-0.1-5.8-0.1-11.6,0-17.5c0-2.1-0.3-4.7,2.9-4.8c3-0.2,3.5,2.1,3.4,4.4c-0.2,2.5,1,3,3.2,3c2.8,0,2.8-1.6,2.7-3.6
		c-0.1-5.8-3.2-9.2-8.8-9.5c-5.9-0.3-9.5,2.8-9.9,8.8C50,101.4,50.1,105,50.1,109.4z M147.5,89.9c-4.1-1.7-4.8,1-5.3,4.4
		c-1.5,9.3-3.1,18.7-4.7,28c-0.3,1.7-1.6,3.8,0.5,4.6c2.7,1.1,4.5-1,4.7-3.4c0.4-4.2,3.2-3.1,5.7-3.4c3.2-0.3,3.2,2,3.2,3.8
		c0,3.9,2.7,3,4.9,2.9c3.2-0.1,1.4-2.5,1.2-3.7c-1.5-9.8-3.4-19.6-4.8-29.5C152.5,90.4,151.2,88.9,147.5,89.9z M135.5,48
		c-4.4-2-6.5-4.6-7.9-8.3c-4.4-11.5-11.9-20.7-22.2-27.6c-4.8-3.2-10.1-8.4-16.1-5c-6,3.4-4.3,10.5-4.3,16.4c0,0.5,0.2,0.6,0.7,0.3
		c0.3-1,0.7-2.1,1-3.1c3-9.7,3.6-9.9,12.1-4.6c9,5.5,16.2,12.5,20.9,22.2C122.7,44.2,126.3,49.7,135.5,48z M17.4,116.7
		c-0.3,0-0.7,0-1,0c-0.1-0.6-0.2-1.3-0.3-1.9c-1.1-7.4-2.3-14.8-3.3-22.2c-0.4-3.2-2.6-2.8-4.8-2.8c-1.8,0-2.1,0.8-1.8,2.5
		c1.8,10.3,3.7,20.6,5.1,31c0.6,4.3,3.3,3.4,6,3.7c3.3,0.3,4.2-1,4.7-4.1c1.4-9.6,3.1-19,4.5-28.6c0.2-1.5,2.2-4.1-1.5-4.6
		c-3.3-0.5-3.8,1.4-4.1,4.1C19.9,101.5,18.6,109.1,17.4,116.7z M117.7,108.2c0,1.8,0,3.7,0,5.5c0.1,4.3-1.4,10.7,0.8,12.4
		c2.8,2.2,8.5,0.6,13,0.8c1.9,0.1,3.2-0.1,3.2-2.5c0-2.2-0.7-3.1-2.9-2.8c-1.3,0.1-2.7-0.1-4,0.1c-5.5,0.8-3.6-3.3-3.8-5.8
		c-0.2-2.8-0.8-5.8,4-5.1c1.7,0.3,4.4,1.4,4.5-2.5c0.1-4.2-2.8-3-4.8-2.8c-3.2,0.3-3.9-0.8-3.8-3.9c0.1-6.5,0-6.5,6.5-6.6
		c0.5,0,1,0,1.5,0c1.8,0.2,2.7-0.3,2.8-2.4c0-2.1-0.6-3-2.8-2.9c-3.5,0.1-7,0.2-10.5,0c-2.8-0.2-3.8,0.6-3.7,3.5
		C117.9,98.2,117.7,103.2,117.7,108.2z M179.3,106.1C179.3,106.1,179.3,106.1,179.3,106.1c0-4.3,0-8.7,0-13c0-1.9,0.2-3.4-2.7-3.5
		c-2.9,0-3.2,1.3-3.1,3.6c0.1,7.7,0.1,15.3,0,23c0,2.4,0.7,5.6-3.1,5.6c-3.7,0.1-3.3-3-3.3-5.5c0-8-0.1-16,0-24
		c0-2.3-0.9-2.8-2.9-2.7c-2,0.1-3.4,0-3.4,2.8c0.2,8.8-0.1,17.7,0.1,26.5c0.1,5.5,3.5,8.4,9.1,8.4c5.8,0,9-2.9,9.2-8.8
		C179.4,114.4,179.3,110.3,179.3,106.1z M30.1,108c0,2.2,0,4.3,0,6.5c0,12.6,0,12.6,12.8,12.4c1.8,0,4.2,0.8,4.2-2.6
		c0-3.4-2.3-2.5-4.1-2.7c-2.1-0.2-5,1.1-6.1-0.8c-1.5-2.6-1-6-0.3-8.8c0.5-2.2,3.2-1,4.9-1.1c2-0.1,3.6,0,3.6-2.8
		c0-2.7-1.4-2.9-3.5-2.9c-1.7,0-3.8,1-5-1C34,100,36.9,95,41.8,95c0.7,0,1.3,0,2,0c1.8,0.1,3.2,0.1,3.3-2.5c0.1-2.8-1.5-2.8-3.5-2.8
		c-3.3,0.1-6.7,0.2-10,0c-3-0.2-3.6,1.2-3.5,3.8C30.2,98.4,30.1,103.2,30.1,108z M201.8,90.1c2.6,11.8,8.8,22.4,7.3,34.6
		c-0.3,2.7,1.7,2.2,3.3,2.3c2,0.1,3.3-0.2,3-2.6c-0.7-7.3,1-14.1,3.4-20.9c1.6-4.4,2.8-9,4.3-13.5c-5.8-0.3-5.8-0.3-7.2,4.4
		c-1.1,3.5-1.5,7.3-3.6,11.1c-1.1-3.8-2.5-7.1-3-10.5C208.8,90.3,206.6,88.7,201.8,90.1z M188.2,110.5c0,4.3,0.1,8.6,0,12.9
		c-0.1,2.3,0.2,3.6,3.1,3.6c3,0.1,3.1-1.3,3.1-3.6c-0.1-8,0.1-15.9-0.1-23.9c-0.1-3,0-5.4,4-4.6c1.8,0.3,2.7-0.4,2.6-2.4
		c-0.1-1.7-0.3-2.9-2.4-2.8c-5,0.1-10,0.1-14.9,0c-2.2,0-1.8,1.4-1.8,2.7c0,1.4-0.1,2.9,1.9,2.5c4.5-0.9,4.7,1.8,4.5,5.1
		C188.1,103.5,188.2,107,188.2,110.5z M122.1,137.8c1.4,2.3,3.1,2.5,4.6,3.1c2.7,1.2,5.5,2.2,8.4,3.1c3.9,1.1,7.8,1.6,11.7,0.1
		c4.5-1.7,8-5.9,7.4-9.5c-0.8-5.2-5.1-5.9-9.3-6.6c-0.8-0.1-1.7-0.3-2.5-0.1c-2.1,0.5-5.4-1.5-6,1.6c-0.5,3,3.2,1.6,4.8,2.7
		c1.6,1.2,4.9,1.3,4.5,3.8c-0.4,2.5-3.4,2.8-5.7,3C134.1,139.6,128.3,139.2,122.1,137.8z M137.3,81.2c4.3,3.7,7.5,3.7,12.3,0.2
		c4.2-3,5.2-6.7,3.6-11.3c-0.4-1.1-0.9-1.8-2-1.7c-1.3,0.1-2.8,0-3.7,1.2c-0.8,1.1,0.1,1.9,0.9,2.4c2.8,1.8,1.5,3.7,0.2,5.5
		C145.9,81.4,142,82.6,137.3,81.2z M142,64.1c-0.9-1.8-2.4-3.2-4.2-3.1c-1.5,0-1.5,1.9-1.6,3.1c0,1.4,0.8,3.1,2.1,2.8
		C139.7,66.6,141.5,65.9,142,64.1z M148.3,57.2c-1.7-0.2-1.4,1.1-1.4,1.9c-0.1,1.4-0.6,3.4,1.5,3.4c0.9,0,2.5-1.4,2.7-2.3
		C151.3,58.6,149.4,58.1,148.3,57.2z"/>
	<path class="st1" d="M102.3,71.6c-5.4-1.4-9.9-2.4-14.3-3.9c-16.2-5.3-27-17-36.1-30.7c-2-3-1-4.7,1.9-5.6c2.7-0.8,5.5-1.5,8.3-1.7
		c14.5-1,28.9-1.9,42.6,4.5c7.6,3.6,12,9.4,13.9,17.9C102.5,32.8,80.3,36,58.4,34.7C67.2,47.8,76.7,58.4,92,61.9
		c5.8,1.4,11.6,2.7,17.5,4c2.4,0.5,3.5,1.5,2.5,4.1c-2.4,6.4-4.5,13.1-7.7,19.1c9.7,2.6,11.7,7.5,6.5,16.9c-0.5,0.9-0.7,1.3,0.2,1.9
		c3.9,2.9,3.1,7.1,3,11c-0.2,4.7-2.9,7.2-7.5,7.8c-11.5,1.5-11.6,1.5-11.5-9.9C95,101.4,92.7,85.6,102.3,71.6z M107.9,116.4
		c0-0.8,0-1.3,0-1.8c0-3.1-1.5-4.6-4.6-4.5c-3.6,0.1-1.8,2.8-2.1,4.4c-0.3,1.3-0.1,2.6,0,4c0.1,1.2-0.6,2.9,1.4,3.1
		c1.5,0.2,3,0.3,4.3-0.9C108.2,119.5,107.8,117.7,107.9,116.4z M100.9,99.8c1.2,1.6-1.7,5,2.5,5.1c3.4,0,3.8-2.3,3.8-5.1
		c0-2.7-0.4-5-3.9-4.8C99.3,95.2,101.9,98.2,100.9,99.8z"/>
	<path class="st2" d="M50.1,109.4c0-4.5-0.2-8,0-11.5c0.4-5.9,4-9.1,9.9-8.8c5.5,0.3,8.6,3.6,8.8,9.5c0,1.9,0.1,3.6-2.7,3.6
		c-2.2,0-3.4-0.5-3.2-3c0.1-2.3-0.3-4.6-3.4-4.4c-3.2,0.2-2.9,2.7-2.9,4.8c-0.1,5.8-0.1,11.6,0,17.5c0,2.1-0.1,4.7,3,4.7
		c3.3,0,3.5-2.6,3.3-5c-0.2-1.9,1.2-4.3-1.9-5.5c-1.6-0.6-1.3-2.9-0.7-4c1.5-2.6,4.2-0.8,6.3-1.2c1.4-0.3,2.2,0.6,2.2,2
		c-0.1,4.3,0.5,8.7-0.4,12.9c-1,4.5-4.2,6.1-8.4,6.2c-4.4,0.1-7.9-1.2-9.2-5.9C49.5,117.1,50.5,112.7,50.1,109.4z"/>
	<path class="st2" d="M75.3,127c-5.8-9.7-2.9-20.3-2.9-30.6c0-4.8,4.4-7.5,9.7-7.2c5,0.2,8.5,3.1,8.7,7.8c0.3,7.5,0.1,15,0.1,22.5
		c0,5.4-4.7,6.5-8.3,8.7C79.9,129.5,77.8,127,75.3,127z M78.3,108.3c0,3.3-0.1,6.6,0,10c0.1,2,0.9,3.6,3.2,3.7
		c2.4,0,3.2-1.6,3.2-3.6c0.1-6.6,0.1-13.3,0-19.9c0-2-0.9-3.6-3.2-3.6c-2.3,0-3.2,1.6-3.3,3.6C78.2,101.7,78.3,105,78.3,108.3z"/>
	<path class="st1" d="M147.5,89.9c3.7-1,4.9,0.5,5.4,3.8c1.5,9.9,3.3,19.6,4.8,29.5c0.2,1.2,2,3.5-1.2,3.7c-2.1,0.1-4.8,0.9-4.9-2.9
		c0-1.8,0-4.2-3.2-3.8c-2.5,0.3-5.3-0.7-5.7,3.4c-0.2,2.4-2,4.5-4.7,3.4c-2.1-0.8-0.8-3-0.5-4.6c1.6-9.3,3.2-18.6,4.7-28
		C142.8,91,143.4,88.3,147.5,89.9z M147.7,99c-0.3-0.1-0.5-0.1-0.8-0.2c-0.7,4.6-1.2,9.2-2.2,13.7c-0.6,2.7,0.8,2.5,2.6,2.6
		c2.3,0.1,2.9-0.6,2.5-2.8C149.1,107.9,148.4,103.5,147.7,99z"/>
	<path class="st1" d="M135.5,48c-9.2,1.7-12.8-3.8-15.7-9.8c-4.7-9.6-12-16.6-20.9-22.2c-8.5-5.3-9.1-5-12.1,4.6
		c-0.3,1.1-0.7,2.1-1,3.1c-0.5,0.3-0.7,0.2-0.7-0.3c0-5.9-1.6-13,4.3-16.4c6-3.4,11.3,1.8,16.1,5c10.2,6.8,17.8,16,22.2,27.6
		C129,43.4,131.1,46,135.5,48z"/>
	<path class="st2" d="M17.4,116.7c1.2-7.6,2.5-15.2,3.5-22.9c0.4-2.7,0.9-4.5,4.1-4.1c3.7,0.5,1.7,3.1,1.5,4.6
		c-1.4,9.5-3.2,19-4.5,28.6c-0.4,3.1-1.4,4.4-4.7,4.1c-2.7-0.3-5.4,0.6-6-3.7c-1.4-10.4-3.3-20.7-5.1-31c-0.3-1.8,0-2.5,1.8-2.5
		c2.2,0,4.4-0.5,4.8,2.8c1,7.4,2.2,14.8,3.3,22.2c0.1,0.6,0.2,1.3,0.3,1.9C16.7,116.7,17.1,116.7,17.4,116.7z"/>
	<path class="st1" d="M117.7,108.2c0-5,0.2-10-0.1-15c-0.1-2.9,0.9-3.7,3.7-3.5c3.5,0.2,7,0.2,10.5,0c2.2-0.1,2.9,0.8,2.8,2.9
		c0,2.1-0.9,2.6-2.8,2.4c-0.5-0.1-1,0-1.5,0c-6.6,0.1-6.4,0.1-6.5,6.6c-0.1,3,0.7,4.2,3.8,3.9c1.9-0.2,4.8-1.4,4.8,2.8
		c-0.1,3.9-2.8,2.8-4.5,2.5c-4.7-0.7-4.2,2.3-4,5.1c0.2,2.5-1.7,6.6,3.8,5.8c1.3-0.2,2.7,0.1,4-0.1c2.2-0.2,2.9,0.7,2.9,2.8
		c0,2.5-1.2,2.6-3.2,2.5c-4.5-0.2-10.2,1.4-13-0.8c-2.2-1.7-0.7-8.1-0.8-12.4C117.7,111.9,117.7,110.1,117.7,108.2z"/>
	<path class="st1" d="M179.3,106.1c0,4.2,0.1,8.3,0,12.5c-0.2,5.9-3.4,8.8-9.2,8.8c-5.6,0-8.9-2.9-9.1-8.4c-0.2-8.8,0-17.7-0.1-26.5
		c-0.1-2.8,1.4-2.7,3.4-2.8c2.1-0.1,3,0.4,2.9,2.7c-0.1,8-0.1,16,0,24c0,2.5-0.4,5.5,3.3,5.5c3.8-0.1,3.1-3.3,3.1-5.6
		c0.1-7.7,0.1-15.3,0-23c0-2.3,0.2-3.6,3.1-3.6c2.9,0,2.7,1.5,2.7,3.5C179.3,97.4,179.3,101.8,179.3,106.1
		C179.3,106.1,179.3,106.1,179.3,106.1z"/>
	<path class="st2" d="M30.1,108c0-4.8,0.1-9.7,0-14.5c-0.1-2.6,0.5-4,3.5-3.8c3.3,0.2,6.7,0.1,10,0c2,0,3.6,0,3.5,2.8
		c-0.1,2.5-1.5,2.5-3.3,2.5c-0.7,0-1.3,0-2,0c-4.8,0-7.8,5-5.3,9.2c1.2,2,3.3,1,5,1c2.1,0,3.5,0.2,3.5,2.9c0,2.8-1.6,2.7-3.6,2.8
		c-1.7,0.1-4.3-1.1-4.9,1.1c-0.7,2.8-1.2,6.2,0.3,8.8c1.1,2,4,0.6,6.1,0.8c1.8,0.2,4.1-0.7,4.1,2.7c0,3.4-2.3,2.5-4.2,2.6
		c-12.8,0.2-12.8,0.2-12.8-12.4C30.1,112.4,30.1,110.2,30.1,108z"/>
	<path class="st1" d="M201.8,90.1c4.8-1.4,7,0.2,7.6,4.9c0.5,3.4,1.8,6.7,3,10.5c2.1-3.8,2.5-7.5,3.6-11.1c1.4-4.7,1.4-4.8,7.2-4.4
		c-1.4,4.6-2.7,9.1-4.3,13.5c-2.4,6.8-4.2,13.6-3.4,20.9c0.2,2.4-1.1,2.7-3,2.6c-1.6-0.1-3.6,0.4-3.3-2.3
		C210.7,112.4,204.4,101.8,201.8,90.1z"/>
	<path class="st1" d="M188.2,110.5c0-3.5-0.1-7,0-10.5c0.2-3.3,0-6-4.5-5.1c-2,0.4-2-1.2-1.9-2.5c0-1.3-0.3-2.7,1.8-2.7
		c5,0.1,10,0.1,14.9,0c2.1,0,2.3,1.1,2.4,2.8c0.1,2-0.8,2.8-2.6,2.4c-4-0.7-4.1,1.6-4,4.6c0.1,8,0,15.9,0.1,23.9
		c0,2.2-0.1,3.6-3.1,3.6c-3-0.1-3.2-1.3-3.1-3.6C188.3,119.1,188.2,114.8,188.2,110.5z"/>
	<path class="st1" d="M122.1,137.8c6.3,1.4,12,1.8,17.9,1.3c2.3-0.2,5.3-0.5,5.7-3c0.4-2.5-2.9-2.6-4.5-3.8
		c-1.5-1.2-5.3,0.3-4.8-2.7c0.5-3.1,3.9-1.1,6-1.6c0.8-0.2,1.7-0.1,2.5,0.1c4.2,0.7,8.5,1.4,9.3,6.6c0.6,3.6-2.9,7.9-7.4,9.5
		c-3.9,1.5-7.9,1-11.7-0.1c-2.8-0.8-5.7-1.9-8.4-3.1C125.2,140.3,123.4,140.1,122.1,137.8z"/>
	<path class="st1" d="M75.3,127c2.5,0,4.6,2.5,7.3,1.2c7.7,3.2,15.3,6.8,23.7,8.2c2,0.3,4,0.8,6.6,1.4
		C99.6,143.2,82.8,138.2,75.3,127z"/>
	<path class="st1" d="M137.3,81.2c4.7,1.4,8.6,0.2,11.5-3.7c1.3-1.7,2.6-3.7-0.2-5.5c-0.8-0.5-1.7-1.3-0.9-2.4
		c0.9-1.2,2.4-1.1,3.7-1.2c1.1-0.1,1.5,0.6,2,1.7c1.6,4.6,0.6,8.3-3.6,11.3C144.8,84.9,141.6,84.9,137.3,81.2z"/>
	<path class="st1" d="M142,64.1c-0.5,1.8-2.3,2.5-3.6,2.8c-1.4,0.3-2.1-1.4-2.1-2.8c0-1.2,0-3.1,1.6-3.1
		C139.6,60.9,141.1,62.2,142,64.1z"/>
	<path class="st1" d="M148.3,57.2c1.1,0.9,3,1.4,2.8,3c-0.2,0.9-1.8,2.3-2.7,2.3c-2.1-0.1-1.6-2-1.5-3.4
		C146.9,58.3,146.6,57,148.3,57.2z"/>
	<path class="st0" d="M107.9,116.4c-0.1,1.3,0.4,3.1-1.1,4.4c-1.2,1.1-2.8,1-4.3,0.9c-2-0.2-1.4-1.9-1.4-3.1c-0.1-1.3-0.2-2.7,0-4
		c0.3-1.6-1.5-4.3,2.1-4.4c3.1-0.1,4.6,1.4,4.6,4.5C107.9,115.1,107.9,115.6,107.9,116.4z"/>
	<path class="st0" d="M100.9,99.8c1-1.6-1.5-4.6,2.4-4.8c3.6-0.2,3.9,2.1,3.9,4.8c0,2.7-0.4,5.1-3.8,5.1
		C99.1,104.8,102,101.4,100.9,99.8z"/>
	<path class="st0" d="M78.3,108.3c0-3.3-0.1-6.6,0-10c0.1-2,0.9-3.6,3.3-3.6c2.3,0,3.2,1.6,3.2,3.6c0.1,6.6,0.1,13.3,0,19.9
		c0,2-0.9,3.6-3.2,3.6c-2.3,0-3.2-1.7-3.2-3.7C78.2,115,78.3,111.6,78.3,108.3z"/>
	<path class="st0" d="M147.7,99c0.7,4.4,1.4,8.9,2.2,13.3c0.4,2.2-0.2,3-2.5,2.8c-1.8-0.1-3.2,0-2.6-2.6c0.9-4.5,1.5-9.1,2.2-13.7
		C147.2,98.9,147.4,99,147.7,99z"/>
</g>
</svg>
